<?xml version="1.0" encoding="UTF-8" standalone="no"?>
<!-- Created with Inkscape (http://www.inkscape.org/) -->

<svg
   xmlns:dc="http://purl.org/dc/elements/1.1/"
   xmlns:cc="http://creativecommons.org/ns#"
   xmlns:rdf="http://www.w3.org/1999/02/22-rdf-syntax-ns#"
   xmlns:svg="http://www.w3.org/2000/svg"
   xmlns="http://www.w3.org/2000/svg"
   xmlns:sodipodi="http://sodipodi.sourceforge.net/DTD/sodipodi-0.dtd"
   xmlns:inkscape="http://www.inkscape.org/namespaces/inkscape"
   width="450"
   height="450"
   viewBox="0 0 119.0625 119.0625"
   version="1.1"
   id="svg8"
   inkscape:export-filename="/Volumes/Data/work/graphics/shipcat_logo_mini1.png"
   inkscape:export-xdpi="96"
   inkscape:export-ydpi="96"
   inkscape:version="0.92.2 5c3e80d, 2017-08-06"
   sodipodi:docname="shipcat_emoji.svg">
  <defs
     id="defs2" />
  <sodipodi:namedview
     id="base"
     pagecolor="#ffffff"
     bordercolor="#666666"
     borderopacity="1.0"
     inkscape:pageopacity="0.0"
     inkscape:pageshadow="2"
     inkscape:zoom="0.46555474"
     inkscape:cx="153.45221"
     inkscape:cy="340.79861"
     inkscape:document-units="mm"
     inkscape:current-layer="g5979"
     showgrid="false"
     showguides="true"
     inkscape:guide-bbox="true"
     inkscape:window-width="1680"
     inkscape:window-height="925"
     inkscape:window-x="0"
     inkscape:window-y="1"
     inkscape:window-maximized="1"
     units="px">
    <sodipodi:guide
       position="-69.278878,459.19462"
       orientation="0,1"
       id="guide3721"
       inkscape:locked="false" />
    <sodipodi:guide
       position="-374.8165,293.99114"
       orientation="1,0"
       id="guide3723"
       inkscape:locked="false" />
    <sodipodi:guide
       position="0,0"
       orientation="0,793.70079"
       id="guide6003"
       inkscape:locked="false" />
    <sodipodi:guide
       position="210,0"
       orientation="-1122.5197,0"
       id="guide6005"
       inkscape:locked="false" />
  </sodipodi:namedview>
  <metadata
     id="metadata5">
    <rdf:RDF>
      <cc:Work
         rdf:about="">
        <dc:format>image/svg+xml</dc:format>
        <dc:type
           rdf:resource="http://purl.org/dc/dcmitype/StillImage" />
        <dc:title></dc:title>
      </cc:Work>
    </rdf:RDF>
  </metadata>
  <g
     inkscape:label="Layer 1"
     inkscape:groupmode="layer"
     id="layer1"
     transform="translate(0,-177.93748)">
    <rect
       style="fill:#ffffff;fill-opacity:1;stroke:none;stroke-width:0.26563117;stroke-opacity:1"
       id="rect5056"
       width="293.92538"
       height="119.64271"
       x="-49.172199"
       y="303.30856" />
    <g
       id="g5108"
       transform="matrix(-0.89212752,0,0,1.0061039,185.53879,-6.0633818)" />
    <g
       id="g5979">
      <g
         transform="translate(244.05815,267.10341)"
         id="g5479">
        <path
           id="path5457"
           transform="matrix(0.26458333,0,0,0.26458333,-290.14422,-90.017044)"
           d="M 401.67773,274.56641 A 221.65858,213.34784 0 0 0 194.18359,413.2168 H 609.01758 A 221.65858,213.34784 0 0 0 401.67773,274.56641 Z"
           style="fill:#88d3e1;fill-opacity:1;stroke:none;stroke-width:5.09835148;stroke-miterlimit:4;stroke-dasharray:none;stroke-opacity:0.94117647"
           inkscape:connector-curvature="0" />
        <ellipse
           style="fill:#88d3e1;fill-opacity:1;stroke:none;stroke-width:1.28377187;stroke-miterlimit:4;stroke-dasharray:none;stroke-opacity:0.94117647"
           id="ellipse5459"
           cx="-184.55287"
           cy="-22.428272"
           rx="46.403351"
           ry="37.880943" />
        <path
           sodipodi:type="star"
           style="fill:#88d3e1;fill-opacity:1;stroke:none;stroke-width:1.4082135;stroke-miterlimit:4;stroke-dasharray:none;stroke-opacity:0.94117647"
           id="path5461"
           sodipodi:sides="3"
           sodipodi:cx="290.1571"
           sodipodi:cy="-43.400768"
           sodipodi:r1="24.781954"
           sodipodi:r2="12.390977"
           sodipodi:arg1="0.15264933"
           sodipodi:arg2="1.1998469"
           inkscape:flatsided="true"
           inkscape:rounded="0.1"
           inkscape:randomized="0"
           d="m 314.65089,-39.632494 c -0.65269,4.242447 -36.65637,18.246291 -40.0041,15.559826 -3.34772,-2.686465 2.52644,-40.868492 6.52684,-42.424475 4.00041,-1.555982 34.12994,22.622201 33.47726,26.864649 z"
           inkscape:transform-center-x="-2.8634633"
           inkscape:transform-center-y="-1.379233"
           transform="matrix(0.95098056,0,0,1.0586706,-489.7702,-8.9113958)" />
        <path
           inkscape:transform-center-y="-1.4224498"
           inkscape:transform-center-x="2.8634561"
           d="m -325.2344,-39.632494 c -0.65268,4.242447 -36.65637,18.246291 -40.00409,15.559826 -3.34773,-2.686465 2.52643,-40.868492 6.52684,-42.424475 4.00041,-1.555982 34.12994,22.622201 33.47725,26.864649 z"
           inkscape:randomized="0"
           inkscape:rounded="0.1"
           inkscape:flatsided="true"
           sodipodi:arg2="1.1998469"
           sodipodi:arg1="0.15264933"
           sodipodi:r2="12.390977"
           sodipodi:r1="24.781954"
           sodipodi:cy="-43.400768"
           sodipodi:cx="-349.72818"
           sodipodi:sides="3"
           id="path5463"
           style="fill:#88d3e1;fill-opacity:1;stroke:none;stroke-width:1.4082135;stroke-miterlimit:4;stroke-dasharray:none;stroke-opacity:0.94117647"
           sodipodi:type="star"
           transform="matrix(-0.95098056,0,0,1.0918389,-486.59519,-6.7034201)" />
        <path
           style="fill:#88d3e1;fill-opacity:1;fill-rule:evenodd;stroke:none;stroke-width:0.26458332px;stroke-linecap:butt;stroke-linejoin:miter;stroke-miterlimit:4;stroke-dasharray:none;stroke-opacity:1"
           d="m -224.50695,-38.51382 c -3.55993,2.544971 -7.65657,4.358465 -10.62101,7.729158 -1.83669,1.317082 -6.81628,7.180485 -5.71437,6.956435 1.63701,-1.268273 8.66473,-3.565657 4.75334,0.18646 -1.57302,2.511398 -5.01495,8.477281 -3.31586,9.640187 3.28275,-2.220833 6.93989,-3.98044 10.8486,-4.675388 -3.07364,3.904788 -5.28921,8.9700915 -5.35911,13.9180562 2.85868,0.3987546 13.18338,5.36535322 13.59899,0.5455419 0.33113,-3.648603 -2.10028,-8.9600961 -1.82919,-12.6535441 0.85737,-5.58896 2.45878,-11.270875 0.92359,-16.8897 -0.33084,-2.458479 -2.58916,-4.843591 -3.28498,-4.757206 z"
           id="path5465"
           inkscape:connector-curvature="0"
           sodipodi:nodetypes="ccccccccccc" />
        <path
           inkscape:connector-curvature="0"
           id="path5467"
           d="m -143.41269,-38.51382 c 3.55993,2.544971 7.65657,4.358465 10.62101,7.729158 1.83669,1.317082 6.81628,7.180485 5.71438,6.956435 -1.637,-1.268273 -8.66473,-3.565657 -4.75333,0.18646 1.573,2.511398 5.01494,8.477281 3.31585,9.640187 -3.28275,-2.220833 -6.93989,-3.98044 -10.8486,-4.675388 3.07364,3.904788 5.2892,8.9700915 5.35911,13.9180562 -2.85868,0.3987546 -13.46755,4.51288266 -13.88316,-0.3069286 -0.33113,-3.648603 2.38443,-8.1076256 2.11335,-11.8010736 -0.85736,-5.58896 -2.45878,-11.270875 -0.9236,-16.8897 0.33085,-2.458479 2.58917,-4.843591 3.28499,-4.757206 z"
           style="fill:#88d3e1;fill-opacity:1;fill-rule:evenodd;stroke:none;stroke-width:0.26458332px;stroke-linecap:butt;stroke-linejoin:miter;stroke-miterlimit:4;stroke-dasharray:none;stroke-opacity:1"
           sodipodi:nodetypes="ccccccccccc" />
        <path
           inkscape:connector-curvature="0"
           id="path5469"
           d="m -225.56528,-40.630504 c 0,0 8.70716,-10.69012 15.53881,-14.90967 6.83165,-4.21955 -5.22421,-17.28006 -10.85027,-19.4903 -5.62607,-2.210237 -4.68854,34.39997 -4.68854,34.39997 z"
           style="fill:#000f2b;fill-opacity:0.21568627;fill-rule:evenodd;stroke:none;stroke-width:0.26458332px;stroke-linecap:butt;stroke-linejoin:miter;stroke-opacity:1" />
        <path
           style="fill:#000f2b;fill-opacity:0.21568627;fill-rule:evenodd;stroke:none;stroke-width:0.26458332px;stroke-linecap:butt;stroke-linejoin:miter;stroke-opacity:1"
           d="m -141.89956,-40.630504 c 0,0 -8.70716,-10.69012 -15.53881,-14.90967 -6.83166,-4.21955 5.2242,-17.28006 10.85027,-19.4903 5.62607,-2.210237 4.68854,34.39997 4.68854,34.39997 z"
           id="path5471"
           inkscape:connector-curvature="0" />
        <path
           sodipodi:nodetypes="cccc"
           inkscape:connector-curvature="0"
           id="path5473"
           d="m -187.33586,-56.968084 6.93753,0.0832 -3.24346,16.51571 z"
           style="fill:#000f2b;fill-opacity:0.21568627;fill-rule:evenodd;stroke:none;stroke-width:0.26458332px;stroke-linecap:butt;stroke-linejoin:miter;stroke-opacity:1" />
        <path
           inkscape:connector-curvature="0"
           id="path5475"
           d="m -189.35054,-56.638394 -3.21489,0.50233 5.12374,9.14236 z"
           style="fill:#000f2b;fill-opacity:0.21568627;fill-rule:evenodd;stroke:none;stroke-width:0.26458332px;stroke-linecap:butt;stroke-linejoin:miter;stroke-opacity:1" />
        <path
           style="fill:#000f2b;fill-opacity:0.21568627;fill-rule:evenodd;stroke:none;stroke-width:0.26458332px;stroke-linecap:butt;stroke-linejoin:miter;stroke-opacity:1"
           d="m -178.48577,-56.638394 3.2149,0.50233 -5.12374,9.14236 z"
           id="path5477"
           inkscape:connector-curvature="0" />
      </g>
      <path
         style="fill:#000f2b;fill-opacity:1;fill-rule:evenodd;stroke:none;stroke-width:0.24267371px;stroke-linecap:butt;stroke-linejoin:miter;stroke-opacity:1"
         d="m 69.75915,236.25963 c 0.54936,1.50699 1.49369,-0.7618 9.961529,-2.56439 5.68202,-1.14674 8.39153,-0.59752 9.0933,-2.51878 0.77861,-2.13164 -3.81327,-1.20308 -9.22349,0.004 -5.410199,1.20726 -10.232659,2.7439 -9.831339,5.07898 z"
         id="path5481"
         inkscape:connector-curvature="0"
         sodipodi:nodetypes="ccszcc" />
      <path
         sodipodi:nodetypes="ccszcc"
         inkscape:connector-curvature="0"
         id="path5483"
         d="m 51.306225,236.25963 c -0.54936,1.50699 -1.49369,-0.7618 -9.96152,-2.56439 -5.68202,-1.14674 -8.39153,-0.59752 -9.0933,-2.51878 -0.77861,-2.13164 3.81327,-1.20308 9.22349,0.004 5.4102,1.20726 10.23265,2.7439 9.83133,5.07898 z"
         style="fill:#000f2b;fill-opacity:1;fill-rule:evenodd;stroke:none;stroke-width:0.24267371px;stroke-linecap:butt;stroke-linejoin:miter;stroke-opacity:1" />
      <ellipse
         style="fill:#000f2b;fill-opacity:1;stroke:#000f2b;stroke-width:1.63172114;stroke-miterlimit:4;stroke-dasharray:none;stroke-opacity:1"
         id="ellipse5485"
         cx="60.098339"
         cy="255.33989"
         rx="3.8596601"
         ry="0.9390223" />
      <g
         id="g5902"
         transform="translate(-46.08607,177.08636)">
        <ellipse
           style="fill:#000f2b;fill-opacity:1;stroke:#000f2b;stroke-width:1.27401245;stroke-miterlimit:4;stroke-dasharray:none;stroke-opacity:1"
           id="path5889"
           cx="-47.725281"
           cy="131.35887"
           rx="5.4551282"
           ry="3.8476808"
           transform="rotate(-82.472186)" />
        <ellipse
           style="fill:#ffffff;fill-opacity:1;stroke:none;stroke-width:1.23415327;stroke-miterlimit:4;stroke-dasharray:none;stroke-opacity:1"
           id="path5891"
           cx="124.68255"
           cy="61.707451"
           rx="2.3594592"
           ry="1.9332205" />
      </g>
      <g
         transform="matrix(-1,0,0,1,166.40849,177.08636)"
         id="g5908">
        <ellipse
           transform="rotate(-82.472186)"
           ry="3.8476808"
           rx="5.4551282"
           cy="131.35887"
           cx="-47.725281"
           id="ellipse5904"
           style="fill:#000f2b;fill-opacity:1;stroke:#000f2b;stroke-width:1.27401245;stroke-miterlimit:4;stroke-dasharray:none;stroke-opacity:1" />
        <ellipse
           ry="1.9332205"
           rx="2.3594592"
           cy="61.707451"
           cx="123.62421"
           id="ellipse5906"
           style="fill:#ffffff;fill-opacity:1;stroke:none;stroke-width:1.23415327;stroke-miterlimit:4;stroke-dasharray:none;stroke-opacity:1" />
      </g>
    </g>
    <path
       style="fill:#000f2b;fill-opacity:1;stroke:none;stroke-width:0.16693816;stroke-miterlimit:4;stroke-dasharray:none;stroke-opacity:1"
       d="m 67.38974,263.61038 c 0,1.30817 -3.14064,-0.89482 -7.01483,-0.89482 -3.87418,0 -7.014832,2.20299 -7.014832,0.89482 0,-1.30816 3.140652,-2.36865 7.014832,-2.36865 3.87419,0 7.01483,1.06049 7.01483,2.36865 z"
       id="path5981"
       inkscape:connector-curvature="0"
       sodipodi:nodetypes="sssss" />
  </g>
</svg>
