<?xml version="1.0" encoding="UTF-8" standalone="no"?>
<!-- Created with Inkscape (http://www.inkscape.org/) -->

<svg
   xmlns:dc="http://purl.org/dc/elements/1.1/"
   xmlns:cc="http://creativecommons.org/ns#"
   xmlns:rdf="http://www.w3.org/1999/02/22-rdf-syntax-ns#"
   xmlns:svg="http://www.w3.org/2000/svg"
   xmlns="http://www.w3.org/2000/svg"
   xmlns:sodipodi="http://sodipodi.sourceforge.net/DTD/sodipodi-0.dtd"
   xmlns:inkscape="http://www.inkscape.org/namespaces/inkscape"
   width="650"
   height="650"
   viewBox="0 0 171.97917 171.97917"
   version="1.1"
   id="svg8"
   inkscape:export-filename="/Volumes/Data/work/graphics/shipcat_logo_mini1.png"
   inkscape:export-xdpi="96"
   inkscape:export-ydpi="96"
   inkscape:version="0.92.2 5c3e80d, 2017-08-06"
   sodipodi:docname="shipcat_logo.svg">
  <defs
     id="defs2" />
  <sodipodi:namedview
     id="base"
     pagecolor="#ffffff"
     bordercolor="#666666"
     borderopacity="1.0"
     inkscape:pageopacity="0.0"
     inkscape:pageshadow="2"
     inkscape:zoom="0.3327989"
     inkscape:cx="553.14861"
     inkscape:cy="773.5301"
     inkscape:document-units="mm"
     inkscape:current-layer="g4812"
     showgrid="false"
     showguides="true"
     inkscape:guide-bbox="true"
     inkscape:window-width="1680"
     inkscape:window-height="925"
     inkscape:window-x="0"
     inkscape:window-y="1"
     inkscape:window-maximized="1"
     units="px">
    <sodipodi:guide
       position="-69.278878,459.19462"
       orientation="0,1"
       id="guide3721"
       inkscape:locked="false" />
    <sodipodi:guide
       position="-374.8165,293.99114"
       orientation="1,0"
       id="guide3723"
       inkscape:locked="false" />
    <sodipodi:guide
       position="196.75856,147.56893"
       orientation="0,1"
       id="guide6571"
       inkscape:locked="false" />
  </sodipodi:namedview>
  <metadata
     id="metadata5">
    <rdf:RDF>
      <cc:Work
         rdf:about="">
        <dc:format>image/svg+xml</dc:format>
        <dc:type
           rdf:resource="http://purl.org/dc/dcmitype/StillImage" />
        <dc:title></dc:title>
      </cc:Work>
    </rdf:RDF>
  </metadata>
  <g
     inkscape:label="Layer 1"
     inkscape:groupmode="layer"
     id="layer1"
     transform="translate(0,-125.0208)">
    <g
       id="g5108"
       transform="matrix(-0.89212752,0,0,1.0061039,185.53879,-6.0633818)" />
    <g
       id="g5956"
       transform="translate(285.70806,107.25202)">
      <g
         transform="translate(-15.525222,116.86863)"
         id="g5455">
        <path
           inkscape:connector-curvature="0"
           id="path4838"
           d="m -183.86704,-17.371131 c -32.38989,-7e-6 -58.6471,26.8601689 -58.64718,58.035646 0.0108,0.437844 0.0268,0.875553 0.0482,1.313038 h 117.17799 c 0.028,-0.43741 0.0506,-0.875119 0.068,-1.313038 -8e-5,-31.1754846 -26.25731,-58.035664 -58.6472,-58.035646 z"
           style="fill:#91d3e1;fill-opacity:1;stroke:none;stroke-width:1.34893882;stroke-miterlimit:4;stroke-dasharray:none;stroke-opacity:0.94117647"
           sodipodi:nodetypes="ccccccc" />
        <ellipse
           ry="37.880943"
           rx="46.403351"
           cy="-22.428272"
           cx="-184.55287"
           id="ellipse4840"
           style="fill:#91d3e1;fill-opacity:1;stroke:none;stroke-width:1.28377187;stroke-miterlimit:4;stroke-dasharray:none;stroke-opacity:0.94117647" />
        <path
           transform="matrix(0.95098056,0,0,1.0586706,-489.7702,-8.9113958)"
           inkscape:transform-center-y="-1.379233"
           inkscape:transform-center-x="-2.8634633"
           d="m 314.65089,-39.632494 c -0.65269,4.242447 -36.65637,18.246291 -40.0041,15.559826 -3.34772,-2.686465 2.52644,-40.868492 6.52684,-42.424475 4.00041,-1.555982 34.12994,22.622201 33.47726,26.864649 z"
           inkscape:randomized="0"
           inkscape:rounded="0.1"
           inkscape:flatsided="true"
           sodipodi:arg2="1.1998469"
           sodipodi:arg1="0.15264933"
           sodipodi:r2="12.390977"
           sodipodi:r1="24.781954"
           sodipodi:cy="-43.400768"
           sodipodi:cx="290.1571"
           sodipodi:sides="3"
           id="path4842"
           style="fill:#91d3e1;fill-opacity:1;stroke:none;stroke-width:1.4082135;stroke-miterlimit:4;stroke-dasharray:none;stroke-opacity:0.94117647"
           sodipodi:type="star" />
        <path
           transform="matrix(-0.95098056,0,0,1.0918389,-486.59519,-6.7034201)"
           sodipodi:type="star"
           style="fill:#91d3e1;fill-opacity:1;stroke:none;stroke-width:1.4082135;stroke-miterlimit:4;stroke-dasharray:none;stroke-opacity:0.94117647"
           id="path4844"
           sodipodi:sides="3"
           sodipodi:cx="-349.72818"
           sodipodi:cy="-43.400768"
           sodipodi:r1="24.781954"
           sodipodi:r2="12.390977"
           sodipodi:arg1="0.15264933"
           sodipodi:arg2="1.1998469"
           inkscape:flatsided="true"
           inkscape:rounded="0.1"
           inkscape:randomized="0"
           d="m -325.2344,-39.632494 c -0.65268,4.242447 -36.65637,18.246291 -40.00409,15.559826 -3.34773,-2.686465 2.52643,-40.868492 6.52684,-42.424475 4.00041,-1.555982 34.12994,22.622201 33.47725,26.864649 z"
           inkscape:transform-center-x="2.8634561"
           inkscape:transform-center-y="-1.4224498" />
        <path
           sodipodi:nodetypes="ccccccccccc"
           inkscape:connector-curvature="0"
           id="path5162"
           d="m -224.50695,-38.51382 c -3.55993,2.544971 -7.65657,4.358465 -10.62101,7.729158 -1.83669,1.317082 -6.81628,7.180485 -5.71437,6.956435 1.63701,-1.268273 8.66473,-3.565657 4.75334,0.18646 -1.57302,2.511398 -5.01495,8.477281 -3.31586,9.640187 3.28275,-2.220833 6.93989,-3.98044 10.8486,-4.675388 -3.07364,3.904788 -5.28921,8.9700915 -5.35911,13.9180562 2.85868,0.3987546 13.18338,5.36535322 13.59899,0.5455419 0.33113,-3.648603 -2.10028,-8.9600961 -1.82919,-12.6535441 0.85737,-5.58896 2.45878,-11.270875 0.92359,-16.8897 -0.33084,-2.458479 -2.58916,-4.843591 -3.28498,-4.757206 z"
           style="fill:#91d3e1;fill-opacity:1;fill-rule:evenodd;stroke:none;stroke-width:0.26458332px;stroke-linecap:butt;stroke-linejoin:miter;stroke-miterlimit:4;stroke-dasharray:none;stroke-opacity:1" />
        <path
           sodipodi:nodetypes="ccccccccccc"
           style="fill:#91d3e1;fill-opacity:1;fill-rule:evenodd;stroke:none;stroke-width:0.26458332px;stroke-linecap:butt;stroke-linejoin:miter;stroke-miterlimit:4;stroke-dasharray:none;stroke-opacity:1"
           d="m -143.41269,-38.51382 c 3.55993,2.544971 7.65657,4.358465 10.62101,7.729158 1.83669,1.317082 6.81628,7.180485 5.71438,6.956435 -1.637,-1.268273 -8.66473,-3.565657 -4.75333,0.18646 1.573,2.511398 5.01494,8.477281 3.31585,9.640187 -3.28275,-2.220833 -6.93989,-3.98044 -10.8486,-4.675388 3.07364,3.904788 5.2892,8.9700915 5.35911,13.9180562 -2.85868,0.3987546 -13.46755,4.51288266 -13.88316,-0.3069286 -0.33113,-3.648603 2.38443,-8.1076256 2.11335,-11.8010736 -0.85736,-5.58896 -2.45878,-11.270875 -0.9236,-16.8897 0.33085,-2.458479 2.58917,-4.843591 3.28499,-4.757206 z"
           id="path5169"
           inkscape:connector-curvature="0" />
        <path
           style="fill:#000f2b;fill-opacity:0.1336634;fill-rule:evenodd;stroke:none;stroke-width:0.26458332px;stroke-linecap:butt;stroke-linejoin:miter;stroke-opacity:1"
           d="m -225.56528,-40.630504 c 0,0 8.70716,-10.69012 15.53881,-14.90967 6.83165,-4.21955 -5.22421,-17.28006 -10.85027,-19.4903 -5.62607,-2.210237 -4.68854,34.39997 -4.68854,34.39997 z"
           id="path5368"
           inkscape:connector-curvature="0" />
        <path
           inkscape:connector-curvature="0"
           id="path5370"
           d="m -141.89956,-40.630504 c 0,0 -8.70716,-10.69012 -15.53881,-14.90967 -6.83166,-4.21955 5.2242,-17.28006 10.85027,-19.4903 5.62607,-2.210237 4.68854,34.39997 4.68854,34.39997 z"
           style="fill:#000f2b;fill-opacity:0.1336634;fill-rule:evenodd;stroke:none;stroke-width:0.26458332px;stroke-linecap:butt;stroke-linejoin:miter;stroke-opacity:1" />
        <path
           style="fill:#000f2b;fill-opacity:0.1336634;fill-rule:evenodd;stroke:none;stroke-width:0.26458332px;stroke-linecap:butt;stroke-linejoin:miter;stroke-opacity:1"
           d="m -187.33586,-56.968084 6.93753,0.0832 -3.24346,16.51571 z"
           id="path5374"
           inkscape:connector-curvature="0"
           sodipodi:nodetypes="cccc" />
        <path
           style="fill:#000f2b;fill-opacity:0.13333333;fill-rule:evenodd;stroke:none;stroke-width:0.26458332px;stroke-linecap:butt;stroke-linejoin:miter;stroke-opacity:1"
           d="m -189.35054,-56.638394 -3.21489,0.50233 5.12374,9.14236 z"
           id="path5376"
           inkscape:connector-curvature="0" />
        <path
           inkscape:connector-curvature="0"
           id="path5378"
           d="m -178.48577,-56.638394 3.2149,0.50233 -5.12374,9.14236 z"
           style="fill:#000f2b;fill-opacity:0.13333333;fill-rule:evenodd;stroke:none;stroke-width:0.26458332px;stroke-linecap:butt;stroke-linejoin:miter;stroke-opacity:1" />
      </g>
      <g
         transform="translate(-291.97855,-53.415534)"
         id="g4812">
        <path
           style="fill:#000f2b;fill-opacity:1;stroke:none;stroke-width:0.12327279;stroke-opacity:1"
           d="m 92.873023,165.68324 a 47.000001,47.000001 0 0 0 -20.959442,4.99349 c -0.04066,-0.0692 -0.0749,-0.13065 -0.119891,-0.20516 -0.858004,-1.42085 -1.193488,-1.66475 -2.503207,-1.82159 -1.309719,-0.15683 -1.581751,0.0145 -2.033466,1.27848 -0.451718,1.26401 -0.3893,1.67922 0.468704,3.10007 0.0019,0.003 0.0033,0.005 0.0052,0.008 a 47.000001,47.000001 0 0 0 -21.766144,37.06075 c -1.52155,0.0412 -1.912387,0.23148 -2.676324,1.2516 -0.240456,0.3211 -0.40567,0.5738 -0.496094,0.79944 H 142.91338 c -0.091,-0.25718 -0.2929,-0.53758 -0.61134,-0.91261 -0.79958,-0.94167 -1.20705,-1.14443 -2.5585,-1.14566 a 47.000001,47.000001 0 0 0 -21.3527,-36.86804 c 0.60924,-1.16938 0.61045,-1.61879 0.13746,-2.72386 -0.51904,-1.21267 -0.80337,-1.36271 -2.1239,-1.1219 -1.1494,0.2096 -1.54727,0.4366 -2.15956,1.45004 a 47.000001,47.000001 0 0 0 -21.371817,-5.14335 z m -0.06615,10.74198 c 5.299329,-2e-5 13.441977,2.32077 13.855487,3.95324 0.41351,1.63248 -12.561651,25.54847 -13.782105,25.60206 -1.498354,0.0658 -15.009156,-23.65871 -14.140222,-25.73693 0.868934,-2.07822 8.725199,-3.81839 14.06684,-3.81837 z m 20.951697,7.75869 c 2.35261,0.0919 7.53452,5.8001 10.12186,10.28155 2.64969,4.58934 4.7112,12.80154 3.50418,13.97589 -1.20701,1.17435 -28.406693,1.89573 -29.063344,0.86558 -0.806162,-1.2647 12.984444,-24.82764 15.218714,-25.11423 0.0698,-0.009 0.1427,-0.0118 0.21859,-0.009 z m -41.836725,0.15503 c 0.05911,0.002 0.114205,0.0105 0.164846,0.0248 1.62052,0.45813 15.844541,23.65274 15.280722,24.73648 -0.69219,1.33051 -27.99361,1.16893 -29.358931,-0.6227 -1.365324,-1.79163 1.055547,-9.46566 3.726386,-14.09165 2.566847,-4.44594 8.354478,-10.11355 10.186977,-10.04693 z"
           id="path4771"
           inkscape:connector-curvature="0" />
        <path
           sodipodi:nodetypes="ccscsc"
           inkscape:connector-curvature="0"
           id="use3765"
           d="m 48.138713,211.87814 h 4.724705 c 0,0 -0.651698,-14.8289 10.394345,-27.81904 12.297599,-14.46196 26.080358,-13.98511 25.702378,-14.93005 -0.37797,-0.94494 -15.63298,-0.42411 -28.5372,13.22916 -11.335351,11.99333 -12.284228,29.51993 -12.284228,29.51993 z"
           style="fill:#003caa;fill-opacity:1;fill-rule:evenodd;stroke:none;stroke-width:0.26458332px;stroke-linecap:butt;stroke-linejoin:miter;stroke-opacity:1" />
        <g
           id="g4619"
           transform="rotate(30,-49.545292,10.845364)"
           style="stroke:none">
          <path
             inkscape:connector-curvature="0"
             id="path3788"
             d="m 174.47361,36.398533 c -1.15736,-0.01 -5.8565,0.269822 -6.97196,5.383554 -0.58629,2.687789 2.45444,6.344895 3.17115,8.336642 1.45864,4.053701 0.67796,9.299937 1.6114,10.831299 0.9112,1.494878 2.37801,1.306331 2.44788,1.296447 0.0703,0.0099 1.53637,0.198191 2.44741,-1.296446 0.93347,-1.53136 0.15322,-6.777599 1.61187,-10.8313 0.7167,-1.991751 3.75743,-5.648853 3.17114,-8.336643 -1.27481,-5.844263 -7.23042,-5.374936 -7.23042,-5.374936 0,0 -0.0932,-0.0072 -0.25847,-0.0086 z"
             style="fill:#000f2b;fill-opacity:1;fill-rule:evenodd;stroke:none;stroke-width:0.19909315px;stroke-linecap:butt;stroke-linejoin:miter;stroke-opacity:1" />
          <path
             sodipodi:nodetypes="ccscsc"
             inkscape:connector-curvature="0"
             id="path4613"
             d="m 169.46102,40.670646 c -0.31285,1.564256 1.0555,2.276349 2.09833,1.233512 1.04284,-1.042837 1.68908,-1.840913 3.32443,-2.172065 3.2149,-0.651005 4.79704,1.564256 4.79704,1.564256 0.62571,-0.312851 -1.35567,-3.545647 -5.42274,-3.232795 -3.33374,0.256442 -4.79706,2.607092 -4.79706,2.607092 z"
             style="fill:#003ca9;fill-opacity:1;fill-rule:evenodd;stroke:none;stroke-width:0.26458332px;stroke-linecap:butt;stroke-linejoin:miter;stroke-opacity:1" />
        </g>
        <g
           transform="rotate(90,84.858931,122.53419)"
           id="g4625"
           style="stroke:none">
          <path
             style="fill:#000f2b;fill-opacity:1;fill-rule:evenodd;stroke:none;stroke-width:0.75247806px;stroke-linecap:butt;stroke-linejoin:miter;stroke-opacity:1"
             d="m 656.37891,536.95898 c -9.74941,0.14205 -21.74233,9.81076 -28.56446,12.26563 -15.32107,5.51297 -35.14967,2.56383 -40.9375,6.0918 -4.32852,2.63844 -4.91708,6.48832 -4.9414,8.27343 h 97.73437 c 0.0378,-4.37427 -1.01821,-22.13369 -20.3457,-26.34961 -0.95237,-0.20774 -1.93675,-0.29594 -2.94531,-0.28125 z"
             transform="matrix(0,-0.26458333,0.26458333,0,25.356881,216.2281)"
             id="path4621"
             inkscape:connector-curvature="0" />
          <path
             style="fill:#003caa;fill-opacity:1;fill-rule:evenodd;stroke:none;stroke-width:0.99999994px;stroke-linecap:butt;stroke-linejoin:miter;stroke-opacity:1"
             d="m 661.46484,544.48438 c -4.42193,0.25165 -6.05226,4.64306 -2.60351,8.09179 3.59169,3.5917 6.41212,5.94828 7.83203,11.01367 h 6.72461 c -0.0127,-0.27081 -0.0198,-0.53855 -0.041,-0.81445 -0.96923,-12.59996 -9.85351,-18.12891 -9.85351,-18.12891 -0.73902,-0.1478 -1.42689,-0.19806 -2.0586,-0.1621 z"
             transform="matrix(0,-0.26458333,0.26458333,0,25.356881,216.2281)"
             id="path4623"
             inkscape:connector-curvature="0" />
        </g>
        <g
           id="g4643"
           transform="rotate(-90,182.3301,204.55082)"
           style="stroke:none">
          <path
             style="fill:#000f2b;fill-opacity:1;fill-rule:evenodd;stroke:none;stroke-width:0.75247806px;stroke-linecap:butt;stroke-linejoin:miter;stroke-opacity:1"
             d="m 110.26953,535.98242 c -1.00856,-0.0147 -1.99294,0.0735 -2.94531,0.28125 -22.088554,4.81818 -20.314454,27.32617 -20.314454,27.32617 h 97.660154 c 0.0374,-0.2657 0.75059,-5.8067 -4.89844,-9.25 -5.78781,-3.52807 -25.61642,-0.57879 -40.9375,-6.09179 -6.82213,-2.45484 -18.81504,-12.12358 -28.56445,-12.26563 z m 74.40039,27.60742 v 1.61719 c 0.0729,-0.89501 0.0117,-1.5343 0,-1.61719 z"
             transform="matrix(0,0.26458333,-0.26458333,0,323.84878,13.38574)"
             id="path4639"
             inkscape:connector-curvature="0" />
          <path
             style="fill:#003caa;fill-opacity:1;fill-rule:evenodd;stroke:none;stroke-width:0.99999994px;stroke-linecap:butt;stroke-linejoin:miter;stroke-opacity:1"
             d="m 104.57617,544.45703 c -2.97299,0.0566 -11.507949,6.82105 -11.378904,19.13281 h 6.509765 c -0.04373,-0.19067 -0.09073,-0.37407 -0.130859,-0.57226 -2.460491,-12.15081 5.912108,-18.13086 5.912108,-18.13086 -0.1478,-0.29561 -0.46716,-0.43815 -0.91211,-0.42969 z"
             transform="matrix(0,0.26458333,-0.26458333,0,323.84878,13.38574)"
             id="path4641"
             inkscape:connector-curvature="0" />
        </g>
        <g
           transform="rotate(-30,317.23405,316.03039)"
           id="g4649"
           style="stroke:none">
          <path
             style="fill:#000f2b;fill-opacity:1;fill-rule:evenodd;stroke:none;stroke-width:0.19909315px;stroke-linecap:butt;stroke-linejoin:miter;stroke-opacity:1"
             d="m 174.47361,36.398533 c -1.15736,-0.01 -5.8565,0.269822 -6.97196,5.383554 -0.58629,2.687789 2.45444,6.344895 3.17115,8.336642 1.45864,4.053701 0.67796,9.299937 1.6114,10.831299 0.9112,1.494878 2.37801,1.306331 2.44788,1.296447 0.0703,0.0099 1.53637,0.198191 2.44741,-1.296446 0.93347,-1.53136 0.15322,-6.777599 1.61187,-10.8313 0.7167,-1.991751 3.75743,-5.648853 3.17114,-8.336643 -1.27481,-5.844263 -7.23042,-5.374936 -7.23042,-5.374936 0,0 -0.0932,-0.0072 -0.25847,-0.0086 z"
             id="path4645"
             inkscape:connector-curvature="0" />
          <path
             style="fill:#003ca9;fill-opacity:1;fill-rule:evenodd;stroke:none;stroke-width:0.26458332px;stroke-linecap:butt;stroke-linejoin:miter;stroke-opacity:1"
             d="m 169.46102,40.670646 c -0.31285,1.564256 1.0555,2.276349 2.09833,1.233512 1.04284,-1.042837 1.68908,-1.840913 3.32443,-2.172065 3.2149,-0.651005 4.79704,1.564256 4.79704,1.564256 0.62571,-0.312851 -1.35567,-3.545647 -5.42274,-3.232795 -3.33374,0.256442 -4.79706,2.607092 -4.79706,2.607092 z"
             id="path4647"
             inkscape:connector-curvature="0"
             sodipodi:nodetypes="ccscsc" />
        </g>
        <path
           style="fill:#003caa;fill-opacity:1;stroke:none;stroke-width:0.73055083;stroke-opacity:1"
           d="m 92.800678,205.18367 c -3.559453,0.0208 -4.382781,0.52806 -6.145364,3.78581 -0.722706,1.33577 -1.143058,2.29175 -1.269687,3.17914 h 14.917433 c -0.12014,-0.9108 -0.556273,-1.88069 -1.317231,-3.25148 -1.79687,-3.23691 -2.625701,-3.73433 -6.185151,-3.71347 z"
           id="path4767"
           inkscape:connector-curvature="0" />
        <path
           style="fill:#000f2b;fill-opacity:1;stroke:none;stroke-width:0.4383305;stroke-opacity:1"
           d="m 92.792409,203.68402 c -4.271351,0.025 -5.259128,0.63356 -7.374228,4.54287 -0.896263,1.65655 -1.4072,2.82666 -1.539441,3.92173 h 4.527889 c 0.107029,-0.47448 0.346085,-0.99782 0.722436,-1.69344 1.057551,-1.95466 1.551446,-2.25917 3.687115,-2.27169 2.135669,-0.0125 2.632765,0.28614 3.710884,2.22828 0.397645,0.71632 0.64806,1.24991 0.753959,1.73685 h 4.531507 c -0.12316,-1.12411 -0.65508,-2.31021 -1.59784,-4.00854 -2.156236,-3.88428 -3.150942,-4.48109 -7.422281,-4.45606 z"
           id="path4786"
           inkscape:connector-curvature="0" />
        <path
           style="fill:#ffffff;stroke:none;stroke-width:0.26786864;stroke-opacity:1"
           d="m 92.825998,209.93325 c -1.305134,0.008 -1.60733,0.19403 -2.253609,1.38854 -0.177081,0.3273 -0.300768,0.58974 -0.380339,0.82683 h 5.299419 c -0.08116,-0.24413 -0.20937,-0.51406 -0.397909,-0.8537 -0.658853,-1.18686 -0.96243,-1.36932 -2.267562,-1.36167 z"
           id="path4757"
           inkscape:connector-curvature="0" />
      </g>
      <g
         id="g5205"
         transform="matrix(0.84905623,0,0,1.0086617,-281.62066,-63.225129)">
        <path
           style="fill:#ffffff;fill-opacity:1;fill-rule:evenodd;stroke:#000f2b;stroke-width:1.0663569;stroke-linecap:butt;stroke-linejoin:miter;stroke-miterlimit:4;stroke-dasharray:none;stroke-opacity:1"
           d="m 108.76014,147.65655 c 0,0 1.93575,-2.64309 5.95028,-3.22834 5.3951,-0.78652 12.42331,-0.66087 12.42331,-0.66087 0,0 0.68444,10.60489 -10.5641,10.52073 -7.50402,-0.0562 -7.80949,-6.63152 -7.80949,-6.63152 z"
           id="path5201"
           inkscape:connector-curvature="0"
           sodipodi:nodetypes="cscsc" />
        <ellipse
           transform="matrix(0.99772073,-0.06747851,-0.1136048,-0.99352602,0,0)"
           ry="4.3314481"
           rx="0.78255814"
           cy="-155.89316"
           cx="100.67883"
           id="ellipse5203"
           style="fill:#000f2b;fill-opacity:1;stroke:none;stroke-width:0.30186361;stroke-opacity:1" />
      </g>
      <path
         sodipodi:nodetypes="ccszcc"
         inkscape:connector-curvature="0"
         id="path5330"
         d="m -189.80633,82.006235 c 0.54936,1.50699 1.49369,-0.7618 9.96153,-2.56439 5.68202,-1.14674 8.39153,-0.59752 9.0933,-2.51878 0.77861,-2.13164 -3.81327,-1.20308 -9.22349,0.004 -5.4102,1.20726 -10.23266,2.7439 -9.83134,5.07898 z"
         style="fill:#000f2b;fill-opacity:1;fill-rule:evenodd;stroke:none;stroke-width:0.24267371px;stroke-linecap:butt;stroke-linejoin:miter;stroke-opacity:1" />
      <g
         transform="matrix(-0.84905623,0,0,1.0086617,-116.44494,-63.225129)"
         id="g5362">
        <path
           sodipodi:nodetypes="cscsc"
           inkscape:connector-curvature="0"
           id="path5358"
           d="m 108.76014,147.65655 c 0,0 1.93575,-2.64309 5.95028,-3.22834 5.3951,-0.78652 12.42331,-0.66087 12.42331,-0.66087 0,0 0.68444,10.60489 -10.5641,10.52073 -7.50402,-0.0562 -7.80949,-6.63152 -7.80949,-6.63152 z"
           style="fill:#ffffff;fill-opacity:1;fill-rule:evenodd;stroke:#000f2b;stroke-width:1.0663569;stroke-linecap:butt;stroke-linejoin:miter;stroke-miterlimit:4;stroke-dasharray:none;stroke-opacity:1" />
        <ellipse
           style="fill:#000f2b;fill-opacity:1;stroke:none;stroke-width:0.30186361;stroke-opacity:1"
           id="ellipse5360"
           cx="100.67883"
           cy="-155.89316"
           rx="0.78255814"
           ry="4.3314481"
           transform="matrix(0.99772073,-0.06747851,-0.1136048,-0.99352602,0,0)" />
      </g>
      <path
         style="fill:#000f2b;fill-opacity:1;fill-rule:evenodd;stroke:none;stroke-width:0.24267371px;stroke-linecap:butt;stroke-linejoin:miter;stroke-opacity:1"
         d="m -208.25926,82.006235 c -0.54936,1.50699 -1.49369,-0.7618 -9.96152,-2.56439 -5.68202,-1.14674 -8.39153,-0.59752 -9.0933,-2.51878 -0.77861,-2.13164 3.81327,-1.20308 9.22349,0.004 5.4102,1.20726 10.23265,2.7439 9.83133,5.07898 z"
         id="path5364"
         inkscape:connector-curvature="0"
         sodipodi:nodetypes="ccszcc" />
      <ellipse
         ry="0.80372363"
         rx="3.0139635"
         cy="100.80233"
         cx="-199.7753"
         id="path5366"
         style="fill:#000f2b;fill-opacity:1;stroke:#000f2b;stroke-width:1.33399999;stroke-miterlimit:4;stroke-dasharray:none;stroke-opacity:1" />
    </g>
    <g
       id="g5979" />
  </g>
</svg>
